<svg xmlns="http://www.w3.org/2000/svg" width="195" height="195" fill="none" viewBox="0 0 195 195">
  <path fill="#F2F2F2" d="M97.5 0c42.737 0 64.106 0 78.488 11.803a52.023 52.023 0 0 1 7.209 7.209C195 33.394 195 54.762 195 97.5c0 42.737 0 64.106-11.804 78.488a51.967 51.967 0 0 1-7.208 7.209C161.606 195 140.237 195 97.5 195s-64.106 0-78.488-11.804a51.95 51.95 0 0 1-7.209-7.208C0 161.606 0 140.237 0 97.5s0-64.106 11.803-78.488a52.005 52.005 0 0 1 7.209-7.209C33.394 0 54.762 0 97.5 0Z"/>
  <path fill="#3730A3" d="M110.472 138.027c-11.948-4.438-24.237-5.12-35.502-2.048-7.852 2.048-15.362 6.145-22.19 11.265l-4.779 4.097-1.365 1.365 3.072 2.731c.341 0 .342.341.683.683.683.682 1.365 1.024 2.39 1.707l2.048 1.365 2.048-1.707c.341-.341 1.024-1.024 1.707-1.365 6.144-5.121 12.972-8.535 20.14-10.241 9.217-2.39 19.117-2.049 29.017 1.706 8.193 3.073 24.92 6.828 45.061-1.706l.682-.342 1.025-1.024c0-.341.341-.341.682-.683 1.707-2.048 3.414-4.096 4.779-6.486l6.828-10.582-10.924 6.145c-16.044 8.875-30.723 10.582-45.402 5.12Zm-46.768-36.868c9.217-2.39 19.117-2.048 29.017 1.707 10.924 4.097 38.916 9.9 70.322-18.434l5.12-5.12.342-.342 1.365-1.365-.682-1.707c-.342-1.366-1.025-3.072-1.707-4.78l-1.707-4.778-3.414 3.413c-.341.683-1.024 1.024-1.707 1.707-15.02 15.362-38.233 31.065-64.86 21.506-11.948-4.437-24.237-5.12-35.502-2.048-10.924 3.072-20.482 8.876-29.358 17.069v-.342l-5.12 5.462c0 .342-.342.342-.683.683l-1.024 1.024.34 1.365c.342 1.707 1.025 3.414 1.366 5.121l2.049 5.462 3.413-4.438c.342-.683 1.024-1.024 1.366-1.707 7.169-6.486 17.068-15.703 31.064-19.458Z"/>
  <path fill="#3730A3" d="M30.592 95.015C38.443 86.822 47.319 81.7 56.877 78.97c9.217-2.39 19.117-2.048 29.017 1.707 30.723 11.265 57.35-7.169 68.956-17.068l4.438-4.438 1.707-1.366-1.365-2.048c-1.025-1.024-1.707-2.39-2.731-3.755l-2.049-2.731-2.389 2.39-1.366 1.365c-14.337 13.655-36.526 27.651-61.788 18.093-11.948-4.438-24.237-5.12-35.502-2.049-7.169 2.049-13.996 5.462-20.824 9.9l-7.168 5.803-1.707 1.707-.683.683v1.024c-.341 2.39-.341 4.78-.683 6.828l-.341 8.534 5.803-6.145c.683-.683 1.366-1.707 2.39-2.39Zm89.779 66.225-.683 2.049.683-2.049c-1.024-.341-1.707-.682-2.731-1.024-11.948-4.438-24.237-5.12-35.502-2.048-2.39.683-4.78 1.365-7.169 2.39l-8.193 3.755-2.048 1.024 6.827 2.389 6.145 2.049 1.024.341 1.024-.341c1.024-.342 2.048-1.025 3.073-1.025.682 0 1.365-.341 2.048-.682 8.193-2.049 17.068-2.049 26.627 1.024 1.024.341 1.707.683 2.731 1.024l1.706.683 1.025-.342c2.389-.682 5.12-1.365 7.168-2.389l9.559-3.414-9.9-2.39c-1.024-.341-2.39-.682-3.414-1.024Zm52.23-70.663-5.12 5.12-2.048 2.049c-13.996 13.313-36.527 27.65-61.788 18.092-11.948-4.438-24.237-5.12-35.503-2.048-10.582 3.072-20.14 8.534-28.675 16.727l-4.438 4.779-1.365 1.707 1.365 2.048c1.025 1.366 1.707 2.39 2.39 3.755l2.048 3.073 2.39-3.073 1.365-1.365c8.193-8.876 17.069-14.338 27.31-17.069 9.217-2.389 19.117-2.048 29.016 1.707 8.535 3.072 17.41 4.097 26.286 3.073 15.703-1.707 31.406-10.583 43.012-20.483.683-.682 1.366-1.024 2.049-1.706l1.024-1.025v-1.024c0-2.048.341-4.437.341-6.486l.341-7.851Z"/>
  <path fill="#3730A3" d="m42.88 59.17-1.024-2.047 1.024 2.048c2.049-1.024 4.438-1.707 6.487-2.39 9.217-2.39 19.116-2.048 29.016 1.707 6.486 2.39 12.972 3.414 20.14 3.414 14.338 0 28.676-5.12 41.989-15.02l5.121-4.097 1.707-1.365-3.073-2.39c-1.024-1.024-2.389-2.048-3.755-2.731l-2.048-1.365-1.707 1.365c-.683.341-1.024 1.024-1.707 1.365-18.092 13.655-36.185 17.41-53.253 10.924-12.29-4.438-24.579-5.462-36.868-1.706-1.024.34-2.049.682-3.414 1.024l-.683.34-1.024 1.025c0 .341-.341.341-.682.683-1.366 2.048-3.073 3.755-4.438 5.803l-6.486 9.9 10.582-5.462c1.707 0 3.072-.683 4.096-1.024Zm27.993-23.212 1.024.341c4.438 1.707 11.265 3.414 19.8 3.414 8.875 0 17.41-2.049 25.944-5.462l10.582-5.12-7.169-2.39c-2.048-.683-4.096-1.366-6.486-1.707h-1.024l-1.024.341c-1.024.341-2.048 1.024-3.072 1.366-10.241 3.755-20.482 4.438-30.382 1.707l-3.072-1.025-1.024-.341-1.025.341c-2.048.683-4.096 1.366-6.144 2.39l-7.852 3.414 8.193 2.39c.683-.342 1.707 0 2.731.34Z"/>
</svg>
