<svg xmlns="http://www.w3.org/2000/svg" width="679" height="195" fill="none" viewBox="0 0 679 195">
  <path fill="#3730A3"
    d="M97.5 0c42.737 0 64.106 0 78.488 11.803a52.023 52.023 0 0 1 7.209 7.209C195 33.394 195 54.762 195 97.5c0 42.737 0 64.106-11.804 78.488a51.967 51.967 0 0 1-7.208 7.209C161.606 195 140.237 195 97.5 195s-64.106 0-78.488-11.804a51.95 51.95 0 0 1-7.209-7.208C0 161.606 0 140.237 0 97.5s0-64.106 11.803-78.488a52.005 52.005 0 0 1 7.209-7.209C33.394 0 54.762 0 97.5 0Z" />
  <path fill="#fff"
    d="M110.472 138.027c-11.948-4.438-24.237-5.12-35.502-2.048-7.852 2.048-15.362 6.145-22.19 11.265l-4.779 4.097-1.365 1.365 3.072 2.731c.341 0 .342.341.683.683.683.682 1.365 1.024 2.39 1.707l2.048 1.365 2.048-1.707c.341-.341 1.024-1.024 1.707-1.365 6.144-5.121 12.972-8.534 20.14-10.241 9.217-2.39 19.117-2.049 29.017 1.707 8.193 3.072 24.92 6.827 45.061-1.707l.682-.342 1.025-1.024c0-.341.341-.341.682-.683 1.707-2.048 3.414-4.096 4.779-6.486l6.828-10.582-10.924 6.145c-16.044 8.875-30.723 10.582-45.402 5.12Zm-46.768-36.868c9.217-2.39 19.117-2.048 29.017 1.707 10.924 4.097 38.916 9.9 70.322-18.434l5.12-5.12.342-.342 1.365-1.365-.682-1.707c-.342-1.365-1.025-3.072-1.707-4.78l-1.707-4.778-3.414 3.413c-.341.683-1.024 1.024-1.707 1.707-15.02 15.362-38.233 31.065-64.86 21.506-11.948-4.437-24.237-5.12-35.502-2.048-10.924 3.072-20.482 8.876-29.358 17.069v-.342l-5.12 5.462c0 .342-.342.342-.683.683l-1.024 1.024.34 1.366c.342 1.706 1.025 3.413 1.366 5.12l2.049 5.462 3.413-4.438c.342-.683 1.024-1.024 1.366-1.707 7.169-6.486 17.068-15.703 31.064-19.458Z" />
  <path fill="#fff"
    d="M30.592 95.015C38.443 86.822 47.319 81.7 56.877 78.97c9.217-2.39 19.117-2.048 29.017 1.707 30.723 11.265 57.35-7.169 68.956-17.068l4.438-4.438 1.707-1.366-1.365-2.048c-1.025-1.024-1.707-2.39-2.731-3.755l-2.049-2.731-2.389 2.39-1.366 1.365c-14.337 13.655-36.526 27.651-61.788 18.093-11.948-4.438-24.237-5.12-35.502-2.049-7.169 2.049-13.996 5.462-20.824 9.9l-7.168 5.804-1.707 1.706-.683.683v1.024c-.341 2.39-.341 4.78-.683 6.828l-.341 8.534 5.803-6.145c.683-.683 1.366-1.707 2.39-2.39Zm89.779 66.225-.683 2.049.683-2.049c-1.024-.341-1.707-.682-2.731-1.024-11.948-4.438-24.237-5.12-35.502-2.048-2.39.683-4.78 1.365-7.169 2.39l-8.193 3.755-2.048 1.024 6.827 2.389 6.145 2.049 1.024.341 1.024-.341c1.024-.342 2.048-1.025 3.073-1.025.682 0 1.365-.341 2.048-.682 8.193-2.048 17.068-2.049 26.627 1.024 1.024.341 1.707.683 2.731 1.024l1.706.683 1.025-.342c2.389-.682 5.12-1.365 7.168-2.389l9.559-3.414-9.9-2.39c-1.024-.341-2.39-.682-3.414-1.024Zm52.23-70.663-5.12 5.12-2.048 2.049c-13.996 13.313-36.527 27.65-61.788 18.092-11.948-4.438-24.237-5.12-35.503-2.048-10.582 3.072-20.14 8.534-28.675 16.727l-4.438 4.779-1.365 1.707 1.365 2.048c1.025 1.366 1.707 2.39 2.39 3.755l2.048 3.073 2.39-3.073 1.365-1.365c8.193-8.876 17.069-14.338 27.31-17.069 9.217-2.389 19.117-2.048 29.016 1.707 8.535 3.073 17.41 4.097 26.286 3.073 15.703-1.707 31.406-10.583 43.012-20.483.683-.682 1.366-1.024 2.049-1.706l1.024-1.025v-1.024c0-2.048.341-4.437.341-6.486l.341-7.851Z" />
  <path fill="#fff"
    d="m42.88 59.17-1.024-2.047 1.024 2.048c2.049-1.024 4.438-1.707 6.487-2.39 9.217-2.39 19.116-2.048 29.016 1.707 6.486 2.39 12.972 3.414 20.14 3.414 14.338 0 28.676-5.12 41.989-15.02l5.121-4.097 1.707-1.365-3.073-2.39c-1.024-1.024-2.389-2.048-3.755-2.731l-2.048-1.365-1.707 1.365c-.683.341-1.024 1.024-1.707 1.365-18.092 13.655-36.185 17.41-53.253 10.924-12.29-4.438-24.579-5.462-36.868-1.706-1.024.34-2.049.682-3.414 1.024l-.683.34-1.024 1.025c0 .341-.341.341-.682.683-1.366 2.048-3.073 3.755-4.438 5.803l-6.486 9.9 10.582-5.462c1.707 0 3.072-.683 4.096-1.024Zm27.993-23.212 1.024.341c4.438 1.707 11.265 3.414 19.8 3.414 8.875 0 17.41-2.049 25.944-5.462l10.582-5.12-7.169-2.39c-2.048-.683-4.096-1.366-6.486-1.707h-1.024l-1.024.341c-1.024.342-2.048 1.024-3.072 1.366-10.241 3.755-20.482 4.438-30.382 1.707l-3.072-1.025-1.024-.341-1.025.341c-2.048.683-4.096 1.366-6.144 2.39l-7.852 3.414 8.193 2.39c.683-.342 1.707 0 2.731.34Z" />
  <path fill="#3730A3"
    d="M333.4 144.96c-5.931 0-11.2-1.387-15.808-4.16-4.565-2.816-8.149-6.912-10.752-12.288-2.603-5.419-3.904-12.032-3.904-19.84 0-7.509 1.344-13.93 4.032-19.264 2.688-5.376 6.336-9.493 10.944-12.352 4.608-2.859 9.771-4.288 15.488-4.288 6.101 0 11.435 1.43 16 4.288 4.565 2.859 8.107 6.976 10.624 12.352 2.56 5.333 3.84 11.755 3.84 19.264 0 7.851-1.365 14.485-4.096 19.904-2.688 5.376-6.336 9.451-10.944 12.224-4.608 2.773-9.749 4.16-15.424 4.16Zm0-10.496c5.419 0 9.813-2.112 13.184-6.336 3.413-4.267 5.12-10.752 5.12-19.456 0-8.277-1.664-14.57-4.992-18.88-3.285-4.352-7.723-6.528-13.312-6.528-5.419 0-9.835 2.176-13.248 6.528-3.371 4.31-5.056 10.603-5.056 18.88 0 8.405 1.685 14.805 5.056 19.2 3.413 4.395 7.829 6.592 13.248 6.592ZM379.238 144v-9.664h48.704V144h-48.704Zm-.704-58.944V74.048h20.48l.448 11.008h-20.928Zm14.4 57.664V91.84c0-2.347.384-3.99 1.152-4.928.811-.939 2.112-1.557 3.904-1.856l-5.056-3.776v-7.232h10.304l.832 18.752c1.067-4.01 2.752-7.51 5.056-10.496 2.304-3.03 5.013-5.376 8.128-7.04 3.115-1.707 6.357-2.56 9.728-2.56 5.803 0 10.304 2.155 13.504 6.464 3.2 4.267 4.693 10.795 4.48 19.584h-11.648c-.085-5.419-1.003-9.259-2.752-11.52-1.707-2.261-4.459-3.392-8.256-3.392-3.413 0-6.763 1.323-10.048 3.968-3.285 2.603-5.76 5.76-7.424 9.472v32c0 1.365-.32 2.475-.96 3.328-.597.811-1.579 1.387-2.944 1.728l3.904 2.368v6.016h-11.904Zm93.07-.384V92.928c0-2.133.384-3.925 1.152-5.376.768-1.493 2.261-2.325 4.48-2.496l-5.632-2.176-.448-5.44 12.16-3.264-.192 68.16h-11.52ZM463.22 144v-9.664h55.104V144H463.22Zm-1.92-58.944v-10.88h36.416l-3.008 10.88H461.3Zm30.016-23.168c-2.603 0-4.821-.896-6.656-2.688-1.792-1.792-2.688-4.117-2.688-6.976 0-2.901.896-5.248 2.688-7.04 1.835-1.835 4.053-2.752 6.656-2.752 2.603 0 4.8.917 6.592 2.752 1.835 1.792 2.752 4.139 2.752 7.04 0 2.859-.917 5.184-2.752 6.976-1.835 1.792-4.032 2.688-6.592 2.688Zm72.334 83.072c-5.931 0-11.2-1.387-15.808-4.16-4.565-2.816-8.149-6.912-10.752-12.288-2.603-5.419-3.904-12.032-3.904-19.84 0-7.509 1.344-13.93 4.032-19.264 2.688-5.376 6.336-9.493 10.944-12.352 4.608-2.859 9.771-4.288 15.488-4.288 6.101 0 11.435 1.43 16 4.288 4.565 2.859 8.107 6.976 10.624 12.352 2.56 5.333 3.84 11.755 3.84 19.264 0 7.851-1.365 14.485-4.096 19.904-2.688 5.376-6.336 9.451-10.944 12.224-4.608 2.773-9.749 4.16-15.424 4.16Zm0-10.496c5.419 0 9.813-2.112 13.184-6.336 3.413-4.267 5.12-10.752 5.12-19.456 0-8.277-1.664-14.57-4.992-18.88-3.285-4.352-7.723-6.528-13.312-6.528-5.419 0-9.835 2.176-13.248 6.528-3.371 4.31-5.056 10.603-5.056 18.88 0 8.405 1.685 14.805 5.056 19.2 3.413 4.395 7.829 6.592 13.248 6.592ZM614.288 144V74.048h10.304l1.216 25.344-1.216-4.288c.939-7.21 3.371-12.736 7.296-16.576 3.925-3.883 9.067-5.824 15.424-5.824 6.485 0 11.435 2.09 14.848 6.272 3.456 4.181 5.184 10.197 5.184 18.048V144H655.44v-43.072c0-5.973-.981-10.304-2.944-12.992-1.92-2.73-5.056-4.096-9.408-4.096-3.627 0-6.912 1.045-9.856 3.136-2.944 2.048-5.291 4.907-7.04 8.576V144h-11.904Z" />
</svg>